<svg xmlns="http://www.w3.org/2000/svg" viewBox="0 0 291.64 62.09"><defs><style>.cls-1{fill:#2e3192;}</style></defs><title>iwwwan</title><g id="Layer_2" data-name="Layer 2"><g id="Layer_1-2" data-name="Layer 1"><path class="cls-1" d="M6,11.2A6,6,0,0,1,1.77,9.55,5.22,5.22,0,0,1,0,5.59,5.19,5.19,0,0,1,1.77,1.64,6,6,0,0,1,6,0a6,6,0,0,1,4.23,1.65,5.28,5.28,0,0,1,1.75,4,5.18,5.18,0,0,1-1.75,3.94A6,6,0,0,1,6,11.2ZM.8,61.21V17.42H11.12V61.21Z"/><path class="cls-1" d="M71.15,17.43l-1.6,6.42L63.56,48h-.4L55.27,17.43H44.86L37,48.2h-.4L28.91,17.43H18.37L30.75,61.22h10.8l8.2-29.61h.6l8.19,29.61H69.32l5.41-19.14L76.47,36l5.22-18.53Z"/><path class="cls-1" d="M124,17.43l-1.61,6.36v.06l-6,24.19H116l-7.89-30.61H97.71L89.85,48.2h-.4L83.36,23.85,78.18,42.08,83.6,61.22H94.4l8.2-29.61h.6l8.19,29.61h10.78l5.41-19.14L129.32,36l5.22-18.53Z"/><path class="cls-1" d="M176.86,17.43,169.26,48h-.4L161,17.43H150.56L142.7,48.2h-.4l-6.09-24.35L131,42.08l5.42,19.14h10.8l8.2-29.61h.6l8.2,29.61H175l12.37-43.79Z"/><path class="cls-1" d="M206.18,62.09a17.94,17.94,0,0,1-7.48-1.5,11.92,11.92,0,0,1-5.25-4.43,13,13,0,0,1-1.92-7.24,12.28,12.28,0,0,1,1.37-6.13,10.59,10.59,0,0,1,3.73-3.88A19.36,19.36,0,0,1,202,36.7a43.8,43.8,0,0,1,6.18-1.09q3.84-.4,6.24-.73a9,9,0,0,0,3.49-1,2.4,2.4,0,0,0,1.1-2.18V31.5a6.49,6.49,0,0,0-1.91-5,7.8,7.8,0,0,0-5.5-1.76,9.8,9.8,0,0,0-6,1.65,8.1,8.1,0,0,0-3,3.9L193,28.94a15.56,15.56,0,0,1,3.76-6.69,16.76,16.76,0,0,1,6.42-4.05,24.84,24.84,0,0,1,8.38-1.35,27.52,27.52,0,0,1,6.3.74A17.85,17.85,0,0,1,223.54,20a12.57,12.57,0,0,1,4.18,4.6,15.13,15.13,0,0,1,1.58,7.27V61.21h-9.92v-6H219a12.65,12.65,0,0,1-2.64,3.41,12.78,12.78,0,0,1-4.25,2.54A17.15,17.15,0,0,1,206.18,62.09Zm2.68-7.58a11.2,11.2,0,0,0,5.39-1.24A9.17,9.17,0,0,0,217.77,50,8.57,8.57,0,0,0,219,45.5V40.34a4.88,4.88,0,0,1-1.64.74,23.54,23.54,0,0,1-2.58.6c-.95.17-1.89.32-2.82.46l-2.43.34a18.22,18.22,0,0,0-4.13,1,6.91,6.91,0,0,0-2.88,2,4.93,4.93,0,0,0-1.05,3.26,4.89,4.89,0,0,0,2.08,4.3A9,9,0,0,0,208.86,54.51Z"/><path class="cls-1" d="M250,35.55V61.21H239.71V17.42h9.86v7.44h.51A12.57,12.57,0,0,1,254.91,19a14.81,14.81,0,0,1,8.23-2.16,15.54,15.54,0,0,1,7.91,1.94,13.21,13.21,0,0,1,5.25,5.61,19.49,19.49,0,0,1,1.84,8.93V61.21H267.81V34.92a9.83,9.83,0,0,0-2.26-6.87,8.07,8.07,0,0,0-6.26-2.48,9.67,9.67,0,0,0-4.8,1.18,8.3,8.3,0,0,0-3.28,3.41A11.33,11.33,0,0,0,250,35.55Z"/><circle class="cls-1" cx="287.47" cy="57.03" r="4.18"/></g></g></svg>